# xmcd
#
# Track frame offsets:
#	150
#	13690
#	26940
#	50247
#	70940
#	83190
#	106740
#	121927
#	135270
#	150322
#
# Disc length: 2191 seconds
#
# Revision: 0
# Processed by: cddbd v1.5.2PL0 Copyright (c) Steve Scherf et al.
# Submitted via: EasyCDDAExtractor 10.0.2.1
#
DISCID=7a088d0a
DTITLE=Albert Fugett - The Lord's Prayer
DYEAR=1900
DGENRE=Gospel
TTITLE0=The Lord's Prayer
TTITLE1=Higher Ground
TTITLE2=Where Could I Go?
TTITLE3=He Looked Beyond My Fault
TTITLE4=Jesus Hold My Hand
TTITLE5=How Great Thou Art
TTITLE6=This World Is Not My Home
TTITLE7=He Touched Me
TTITLE8=Just A Little Talk With Jesus
TTITLE9=Peace In The Valley
EXTD=
EXTT0=
EXTT1=
EXTT2=
EXTT3=
EXTT4=
EXTT5=
EXTT6=
EXTT7=
EXTT8=
EXTT9=
PLAYORDER=
